<svg width="28" height="28" viewBox="0 0 28 28" fill="none" xmlns="http://www.w3.org/2000/svg">
<path d="M20.3589 26.5416C19.0405 26.5416 17.6522 26.2266 16.2172 25.6199C14.8172 25.025 13.4055 24.2083 12.0289 23.2166C10.6639 22.2133 9.34553 21.0933 8.0972 19.8683C6.86053 18.62 5.74053 17.3016 4.74886 15.9483C3.74553 14.5483 2.94053 13.1483 2.36886 11.7949C1.7622 10.3483 1.45886 8.94828 1.45886 7.62995C1.45886 6.71995 1.6222 5.85662 1.9372 5.05162C2.26386 4.22328 2.78886 3.45328 3.50053 2.78828C4.39886 1.90162 5.42553 1.45828 6.5222 1.45828C6.9772 1.45828 7.44386 1.56328 7.84053 1.74995C8.29553 1.95995 8.68053 2.27495 8.96053 2.69495L11.6672 6.50995C11.9122 6.84828 12.0989 7.17495 12.2272 7.50162C12.3789 7.85162 12.4605 8.20162 12.4605 8.53995C12.4605 8.98328 12.3322 9.41495 12.0872 9.82328C11.9122 10.1383 11.6439 10.4766 11.3055 10.8149L10.5122 11.6433C10.5239 11.6783 10.5355 11.7016 10.5472 11.7249C10.6872 11.9699 10.9672 12.3899 11.5039 13.0199C12.0755 13.6733 12.6122 14.2683 13.1489 14.8166C13.8372 15.4933 14.4089 16.03 14.9455 16.4733C15.6105 17.0333 16.0422 17.3133 16.2989 17.4416L16.2755 17.5L17.1272 16.66C17.4889 16.2983 17.8389 16.03 18.1772 15.8549C18.8189 15.4583 19.6355 15.3883 20.4522 15.7266C20.7555 15.8549 21.0822 16.03 21.4322 16.275L25.3055 19.0283C25.7372 19.32 26.0522 19.6933 26.2389 20.1366C26.4139 20.58 26.4955 20.9883 26.4955 21.3966C26.4955 21.9566 26.3672 22.5166 26.1222 23.0416C25.8772 23.5666 25.5739 24.0216 25.1889 24.4416C24.5239 25.1766 23.8005 25.7016 22.9605 26.04C22.1555 26.3666 21.2805 26.5416 20.3589 26.5416ZM6.5222 3.20828C5.88053 3.20828 5.28553 3.48828 4.71386 4.04828C4.1772 4.54995 3.80386 5.09828 3.57053 5.69328C3.32553 6.29995 3.20886 6.94162 3.20886 7.62995C3.20886 8.71495 3.46553 9.89328 3.97886 11.1066C4.50386 12.3433 5.23886 13.6266 6.1722 14.9099C7.10553 16.1933 8.1672 17.4416 9.33386 18.62C10.5005 19.775 11.7605 20.8483 13.0555 21.7933C14.3155 22.715 15.6105 23.4616 16.8939 23.9983C18.8889 24.85 20.7555 25.0483 22.2955 24.4066C22.8905 24.1616 23.4155 23.7883 23.8939 23.2516C24.1622 22.96 24.3722 22.645 24.5472 22.2716C24.6872 21.9799 24.7572 21.6766 24.7572 21.3733C24.7572 21.1866 24.7222 21 24.6289 20.7899C24.5939 20.7199 24.5239 20.5916 24.3022 20.44L20.4289 17.6866C20.1955 17.5233 19.9855 17.4066 19.7872 17.325C19.5305 17.22 19.4255 17.115 19.0289 17.36C18.7955 17.4766 18.5855 17.6516 18.3522 17.885L17.4655 18.76C17.0105 19.2033 16.3105 19.3083 15.7739 19.1099L15.4589 18.9699C14.9805 18.7133 14.4205 18.3166 13.8022 17.7916C13.2422 17.3133 12.6355 16.7533 11.9005 16.03C11.3289 15.4466 10.7572 14.8283 10.1622 14.1399C9.61386 13.4983 9.2172 12.95 8.9722 12.495L8.8322 12.1449C8.7622 11.8766 8.73886 11.7249 8.73886 11.5616C8.73886 11.1416 8.89053 10.7683 9.1822 10.4766L10.0572 9.56662C10.2905 9.33328 10.4655 9.11162 10.5822 8.91328C10.6755 8.76162 10.7105 8.63328 10.7105 8.51662C10.7105 8.42328 10.6755 8.28328 10.6172 8.14328C10.5355 7.95662 10.4072 7.74662 10.2439 7.52495L7.5372 3.69828C7.42053 3.53495 7.28053 3.41828 7.10553 3.33662C6.91886 3.25495 6.72053 3.20828 6.5222 3.20828ZM16.2755 17.5116L16.0889 18.305L16.4039 17.4883C16.3455 17.4766 16.2989 17.4883 16.2755 17.5116Z" fill="white"/>
<path d="M21.5833 11.3751C21.105 11.3751 20.7083 10.9784 20.7083 10.5001C20.7083 10.0801 20.2883 9.20505 19.5883 8.45838C18.9 7.72338 18.1417 7.29172 17.5 7.29172C17.0217 7.29172 16.625 6.89505 16.625 6.41672C16.625 5.93838 17.0217 5.54172 17.5 5.54172C18.6317 5.54172 19.8217 6.14838 20.86 7.25672C21.8283 8.29505 22.4583 9.56672 22.4583 10.5001C22.4583 10.9784 22.0617 11.3751 21.5833 11.3751Z" fill="white"/>
<path d="M25.6667 11.375C25.1883 11.375 24.7917 10.9783 24.7917 10.5C24.7917 6.47495 21.525 3.20828 17.5 3.20828C17.0217 3.20828 16.625 2.81162 16.625 2.33328C16.625 1.85495 17.0217 1.45828 17.5 1.45828C22.4817 1.45828 26.5417 5.51828 26.5417 10.5C26.5417 10.9783 26.145 11.375 25.6667 11.375Z" fill="white"/>
</svg>
