<svg width="28" height="28" viewBox="0 0 28 28" fill="none" xmlns="http://www.w3.org/2000/svg">
<path d="M19.8339 24.7916H8.1672C3.90886 24.7916 1.45886 22.3416 1.45886 18.0833V9.91659C1.45886 5.65825 3.90886 3.20825 8.1672 3.20825H19.8339C24.0922 3.20825 26.5422 5.65825 26.5422 9.91659V18.0833C26.5422 22.3416 24.0922 24.7916 19.8339 24.7916ZM8.1672 4.95825C4.83053 4.95825 3.20886 6.57992 3.20886 9.91659V18.0833C3.20886 21.4199 4.83053 23.0416 8.1672 23.0416H19.8339C23.1705 23.0416 24.7922 21.4199 24.7922 18.0833V9.91659C24.7922 6.57992 23.1705 4.95825 19.8339 4.95825H8.1672Z" fill="white"/>
<path d="M13.9996 15.015C13.0196 15.015 12.0279 14.7116 11.2696 14.0933L7.61791 11.1766C7.24458 10.8733 7.17458 10.325 7.47792 9.95163C7.78125 9.5783 8.32959 9.5083 8.70292 9.81164L12.3546 12.7283C13.2412 13.44 14.7462 13.44 15.6329 12.7283L19.2846 9.81164C19.6579 9.5083 20.2179 9.56663 20.5096 9.95163C20.8129 10.325 20.7546 10.885 20.3696 11.1766L16.7179 14.0933C15.9712 14.7116 14.9796 15.015 13.9996 15.015Z" fill="white"/>
</svg>
