<svg width="28" height="28" viewBox="0 0 28 28" fill="none" xmlns="http://www.w3.org/2000/svg">
<path d="M13.9999 16.5316C11.5149 16.5316 9.48486 14.5132 9.48486 12.0166C9.48486 9.51991 11.5149 7.51324 13.9999 7.51324C16.4849 7.51324 18.5149 9.53158 18.5149 12.0282C18.5149 14.5249 16.4849 16.5316 13.9999 16.5316ZM13.9999 9.26324C12.4832 9.26324 11.2349 10.4999 11.2349 12.0282C11.2349 13.5566 12.4715 14.7932 13.9999 14.7932C15.5282 14.7932 16.7649 13.5566 16.7649 12.0282C16.7649 10.4999 15.5165 9.26324 13.9999 9.26324Z" fill="white"/>
<path d="M14.0002 26.5533C12.2735 26.5533 10.5352 25.9 9.18187 24.605C5.74021 21.2916 1.93687 16.0066 3.37187 9.71831C4.66687 4.01331 9.64854 1.45831 14.0002 1.45831C14.0002 1.45831 14.0002 1.45831 14.0119 1.45831C18.3635 1.45831 23.3452 4.01331 24.6402 9.72998C26.0635 16.0183 22.2602 21.2916 18.8185 24.605C17.4652 25.9 15.7269 26.5533 14.0002 26.5533ZM14.0002 3.20831C10.6052 3.20831 6.24187 5.01665 5.08687 10.1033C3.82687 15.5983 7.28021 20.335 10.4069 23.3333C12.4252 25.2816 15.5869 25.2816 17.6052 23.3333C20.7202 20.335 24.1735 15.5983 22.9369 10.1033C21.7702 5.01665 17.3952 3.20831 14.0002 3.20831Z" fill="white"/>
</svg>
